<svg xmlns="http://www.w3.org/2000/svg" xmlns:xlink="http://www.w3.org/1999/xlink" width="576" height="384" version="1.1" viewBox="0 0 432 288"><defs><style type="text/css">*{stroke-linecap:butt;stroke-linejoin:round}</style></defs><g id="figure_1"><g id="patch_1"><path d="M 0 288 L 432 288 L 432 0 L 0 0 z" style="fill:#fff"/></g><g id="axes_1"><g id="patch_2"><path d="M 54 252 L 388.8 252 L 388.8 34.56 L 54 34.56 z" style="fill:#e5e5e5"/></g><g id="matplotlib.axis_1"><g id="xtick_1"><g id="line2d_1"><path d="M 58.722884 252 L 58.722884 34.56" clip-path="url(#pf6a184e367)" style="fill:none;stroke:#fff;stroke-linecap:square;stroke-width:.8"/></g><g id="line2d_2"><defs><path id="m4357eea4fb" d="M 0 0 L 0 3.5" style="stroke:#555;stroke-width:.8"/></defs><g><use style="fill:#555;stroke:#555;stroke-width:.8" x="58.723" y="252" xlink:href="#m4357eea4fb"/></g></g><g id="text_1"><text style="fill:#555;font-family:DejaVu Sans;font-size:10px;font-style:normal;font-weight:400;text-anchor:middle" x="58.723" y="266.598" transform="rotate(-0, 58.722884, 266.598437)">0</text></g></g><g id="xtick_2"><g id="line2d_3"><path d="M 111.199373 252 L 111.199373 34.56" clip-path="url(#pf6a184e367)" style="fill:none;stroke:#fff;stroke-linecap:square;stroke-width:.8"/></g><g id="line2d_4"><g><use style="fill:#555;stroke:#555;stroke-width:.8" x="111.199" y="252" xlink:href="#m4357eea4fb"/></g></g><g id="text_2"><text style="fill:#555;font-family:DejaVu Sans;font-size:10px;font-style:normal;font-weight:400;text-anchor:middle" x="111.199" y="266.598" transform="rotate(-0, 111.199373, 266.598437)">5</text></g></g><g id="xtick_3"><g id="line2d_5"><path d="M 163.675862 252 L 163.675862 34.56" clip-path="url(#pf6a184e367)" style="fill:none;stroke:#fff;stroke-linecap:square;stroke-width:.8"/></g><g id="line2d_6"><g><use style="fill:#555;stroke:#555;stroke-width:.8" x="163.676" y="252" xlink:href="#m4357eea4fb"/></g></g><g id="text_3"><text style="fill:#555;font-family:DejaVu Sans;font-size:10px;font-style:normal;font-weight:400;text-anchor:middle" x="163.676" y="266.598" transform="rotate(-0, 163.675862, 266.598437)">10</text></g></g><g id="xtick_4"><g id="line2d_7"><path d="M 216.152351 252 L 216.152351 34.56" clip-path="url(#pf6a184e367)" style="fill:none;stroke:#fff;stroke-linecap:square;stroke-width:.8"/></g><g id="line2d_8"><g><use style="fill:#555;stroke:#555;stroke-width:.8" x="216.152" y="252" xlink:href="#m4357eea4fb"/></g></g><g id="text_4"><text style="fill:#555;font-family:DejaVu Sans;font-size:10px;font-style:normal;font-weight:400;text-anchor:middle" x="216.152" y="266.598" transform="rotate(-0, 216.152351, 266.598437)">15</text></g></g><g id="xtick_5"><g id="line2d_9"><path d="M 268.62884 252 L 268.62884 34.56" clip-path="url(#pf6a184e367)" style="fill:none;stroke:#fff;stroke-linecap:square;stroke-width:.8"/></g><g id="line2d_10"><g><use style="fill:#555;stroke:#555;stroke-width:.8" x="268.629" y="252" xlink:href="#m4357eea4fb"/></g></g><g id="text_5"><text style="fill:#555;font-family:DejaVu Sans;font-size:10px;font-style:normal;font-weight:400;text-anchor:middle" x="268.629" y="266.598" transform="rotate(-0, 268.62884, 266.598437)">20</text></g></g><g id="xtick_6"><g id="line2d_11"><path d="M 321.105329 252 L 321.105329 34.56" clip-path="url(#pf6a184e367)" style="fill:none;stroke:#fff;stroke-linecap:square;stroke-width:.8"/></g><g id="line2d_12"><g><use style="fill:#555;stroke:#555;stroke-width:.8" x="321.105" y="252" xlink:href="#m4357eea4fb"/></g></g><g id="text_6"><text style="fill:#555;font-family:DejaVu Sans;font-size:10px;font-style:normal;font-weight:400;text-anchor:middle" x="321.105" y="266.598" transform="rotate(-0, 321.105329, 266.598437)">25</text></g></g><g id="xtick_7"><g id="line2d_13"><path d="M 373.581818 252 L 373.581818 34.56" clip-path="url(#pf6a184e367)" style="fill:none;stroke:#fff;stroke-linecap:square;stroke-width:.8"/></g><g id="line2d_14"><g><use style="fill:#555;stroke:#555;stroke-width:.8" x="373.582" y="252" xlink:href="#m4357eea4fb"/></g></g><g id="text_7"><text style="fill:#555;font-family:DejaVu Sans;font-size:10px;font-style:normal;font-weight:400;text-anchor:middle" x="373.582" y="266.598" transform="rotate(-0, 373.581818, 266.598437)">30</text></g></g><g id="text_8"><text style="fill:#555;font-family:DejaVu Sans;font-size:12px;font-style:normal;font-weight:400;text-anchor:middle" x="221.4" y="281.796" transform="rotate(-0, 221.4, 281.79625)">Time of test (days after previous test)</text></g></g><g id="matplotlib.axis_2"><g id="ytick_1"><g id="line2d_15"><path d="M 54 224.637423 L 388.8 224.637423" clip-path="url(#pf6a184e367)" style="fill:none;stroke:#fff;stroke-linecap:square;stroke-width:.8"/></g><g id="line2d_16"><defs><path id="m83048ba05a" d="M 0 0 L -3.5 0" style="stroke:#555;stroke-width:.8"/></defs><g><use style="fill:#555;stroke:#555;stroke-width:.8" x="54" y="224.637" xlink:href="#m83048ba05a"/></g></g><g id="text_9"><text style="fill:#555;font-family:DejaVu Sans;font-size:10px;font-style:normal;font-weight:400;text-anchor:end" x="47" y="228.437" transform="rotate(-0, 47, 228.436642)">6</text></g></g><g id="ytick_2"><g id="line2d_17"><path d="M 54 184.160775 L 388.8 184.160775" clip-path="url(#pf6a184e367)" style="fill:none;stroke:#fff;stroke-linecap:square;stroke-width:.8"/></g><g id="line2d_18"><g><use style="fill:#555;stroke:#555;stroke-width:.8" x="54" y="184.161" xlink:href="#m83048ba05a"/></g></g><g id="text_10"><text style="fill:#555;font-family:DejaVu Sans;font-size:10px;font-style:normal;font-weight:400;text-anchor:end" x="47" y="187.96" transform="rotate(-0, 47, 187.959994)">8</text></g></g><g id="ytick_3"><g id="line2d_19"><path d="M 54 143.684127 L 388.8 143.684127" clip-path="url(#pf6a184e367)" style="fill:none;stroke:#fff;stroke-linecap:square;stroke-width:.8"/></g><g id="line2d_20"><g><use style="fill:#555;stroke:#555;stroke-width:.8" x="54" y="143.684" xlink:href="#m83048ba05a"/></g></g><g id="text_11"><text style="fill:#555;font-family:DejaVu Sans;font-size:10px;font-style:normal;font-weight:400;text-anchor:end" x="47" y="147.483" transform="rotate(-0, 47, 147.483346)">10</text></g></g><g id="ytick_4"><g id="line2d_21"><path d="M 54 103.207479 L 388.8 103.207479" clip-path="url(#pf6a184e367)" style="fill:none;stroke:#fff;stroke-linecap:square;stroke-width:.8"/></g><g id="line2d_22"><g><use style="fill:#555;stroke:#555;stroke-width:.8" x="54" y="103.207" xlink:href="#m83048ba05a"/></g></g><g id="text_12"><text style="fill:#555;font-family:DejaVu Sans;font-size:10px;font-style:normal;font-weight:400;text-anchor:end" x="47" y="107.007" transform="rotate(-0, 47, 107.006698)">12</text></g></g><g id="ytick_5"><g id="line2d_23"><path d="M 54 62.730831 L 388.8 62.730831" clip-path="url(#pf6a184e367)" style="fill:none;stroke:#fff;stroke-linecap:square;stroke-width:.8"/></g><g id="line2d_24"><g><use style="fill:#555;stroke:#555;stroke-width:.8" x="54" y="62.731" xlink:href="#m83048ba05a"/></g></g><g id="text_13"><text style="fill:#555;font-family:DejaVu Sans;font-size:10px;font-style:normal;font-weight:400;text-anchor:end" x="47" y="66.53" transform="rotate(-0, 47, 66.53005)">14</text></g></g><g id="text_14"><text style="fill:#555;font-family:DejaVu Sans;font-size:12px;font-style:normal;font-weight:400;text-anchor:middle" x="27.779" y="143.28" transform="rotate(-90, 27.779375, 143.28)">Half-life (days)</text></g></g><g id="line2d_25"><path d="M 54 204.399099 L 388.8 204.399099" clip-path="url(#pf6a184e367)" style="fill:none;stroke:gray;stroke-linecap:square"/></g><g id="line2d_26"><path d="M 69.218182 198.879543 L 79.71348 193.462838 L 90.208777 188.045288 L 100.704075 182.629961 L 111.199373 177.219187 L 121.694671 171.814658 L 132.189969 166.417554 L 142.685266 161.028653 L 153.180564 155.648428 L 163.675862 150.27712 L 174.17116 144.914803 L 184.666458 139.561424 L 195.161755 134.216841 L 205.657053 128.880849 L 216.152351 123.553198 L 226.647649 118.233612 L 237.142947 112.921798 L 247.638245 107.617454 L 258.133542 102.320275 L 268.62884 97.029959 L 279.124138 91.74621 L 289.619436 86.468738 L 300.114734 81.197263 L 310.610031 75.931517 L 321.105329 70.671241 L 331.600627 65.416187 L 342.095925 60.166119 L 352.591223 54.920812 L 363.08652 49.680053 L 373.581818 44.443636" clip-path="url(#pf6a184e367)" style="fill:none;stroke:#e24a33;stroke-linecap:square;stroke-width:1.5"/><defs><path id="m480beb7bbe" d="M -3 3 L 3 -3 M -3 -3 L 3 3" style="stroke:#e24a33"/></defs><g clip-path="url(#pf6a184e367)"><use style="fill:#e24a33;stroke:#e24a33" x="69.218" y="198.88" xlink:href="#m480beb7bbe"/><use style="fill:#e24a33;stroke:#e24a33" x="79.713" y="193.463" xlink:href="#m480beb7bbe"/><use style="fill:#e24a33;stroke:#e24a33" x="90.209" y="188.045" xlink:href="#m480beb7bbe"/><use style="fill:#e24a33;stroke:#e24a33" x="100.704" y="182.63" xlink:href="#m480beb7bbe"/><use style="fill:#e24a33;stroke:#e24a33" x="111.199" y="177.219" xlink:href="#m480beb7bbe"/><use style="fill:#e24a33;stroke:#e24a33" x="121.695" y="171.815" xlink:href="#m480beb7bbe"/><use style="fill:#e24a33;stroke:#e24a33" x="132.19" y="166.418" xlink:href="#m480beb7bbe"/><use style="fill:#e24a33;stroke:#e24a33" x="142.685" y="161.029" xlink:href="#m480beb7bbe"/><use style="fill:#e24a33;stroke:#e24a33" x="153.181" y="155.648" xlink:href="#m480beb7bbe"/><use style="fill:#e24a33;stroke:#e24a33" x="163.676" y="150.277" xlink:href="#m480beb7bbe"/><use style="fill:#e24a33;stroke:#e24a33" x="174.171" y="144.915" xlink:href="#m480beb7bbe"/><use style="fill:#e24a33;stroke:#e24a33" x="184.666" y="139.561" xlink:href="#m480beb7bbe"/><use style="fill:#e24a33;stroke:#e24a33" x="195.162" y="134.217" xlink:href="#m480beb7bbe"/><use style="fill:#e24a33;stroke:#e24a33" x="205.657" y="128.881" xlink:href="#m480beb7bbe"/><use style="fill:#e24a33;stroke:#e24a33" x="216.152" y="123.553" xlink:href="#m480beb7bbe"/><use style="fill:#e24a33;stroke:#e24a33" x="226.648" y="118.234" xlink:href="#m480beb7bbe"/><use style="fill:#e24a33;stroke:#e24a33" x="237.143" y="112.922" xlink:href="#m480beb7bbe"/><use style="fill:#e24a33;stroke:#e24a33" x="247.638" y="107.617" xlink:href="#m480beb7bbe"/><use style="fill:#e24a33;stroke:#e24a33" x="258.134" y="102.32" xlink:href="#m480beb7bbe"/><use style="fill:#e24a33;stroke:#e24a33" x="268.629" y="97.03" xlink:href="#m480beb7bbe"/><use style="fill:#e24a33;stroke:#e24a33" x="279.124" y="91.746" xlink:href="#m480beb7bbe"/><use style="fill:#e24a33;stroke:#e24a33" x="289.619" y="86.469" xlink:href="#m480beb7bbe"/><use style="fill:#e24a33;stroke:#e24a33" x="300.115" y="81.197" xlink:href="#m480beb7bbe"/><use style="fill:#e24a33;stroke:#e24a33" x="310.61" y="75.932" xlink:href="#m480beb7bbe"/><use style="fill:#e24a33;stroke:#e24a33" x="321.105" y="70.671" xlink:href="#m480beb7bbe"/><use style="fill:#e24a33;stroke:#e24a33" x="331.601" y="65.416" xlink:href="#m480beb7bbe"/><use style="fill:#e24a33;stroke:#e24a33" x="342.096" y="60.166" xlink:href="#m480beb7bbe"/><use style="fill:#e24a33;stroke:#e24a33" x="352.591" y="54.921" xlink:href="#m480beb7bbe"/><use style="fill:#e24a33;stroke:#e24a33" x="363.087" y="49.68" xlink:href="#m480beb7bbe"/><use style="fill:#e24a33;stroke:#e24a33" x="373.582" y="44.444" xlink:href="#m480beb7bbe"/></g></g><g id="line2d_27"><path d="M 69.218182 242.116364 L 79.71348 240.295314 L 90.208777 238.57117 L 100.704075 236.940581 L 111.199373 235.400429 L 121.694671 233.947776 L 132.189969 232.579831 L 142.685266 231.293939 L 153.180564 230.087564 L 163.675862 228.958278 L 174.17116 227.903749 L 184.666458 226.921732 L 195.161755 226.010058 L 205.657053 225.166626 L 216.152351 224.389396 L 226.647649 223.676382 L 237.142947 223.025645 L 247.638245 222.435292 L 258.133542 221.903469 L 268.62884 221.428358 L 279.124138 221.008177 L 289.619436 220.641177 L 300.114734 220.325638 L 310.610031 220.059873 L 321.105329 219.842223 L 331.600627 219.671059 L 342.095925 219.54478 L 352.591223 219.461813 L 363.08652 219.420616 L 373.581818 219.419674" clip-path="url(#pf6a184e367)" style="fill:none;stroke:#e24a33;stroke-linecap:square;stroke-width:1.5"/><defs><path id="m58ed458a1e" d="M 0 3 C 0.795609 3 1.55874 2.683901 2.12132 2.12132 C 2.683901 1.55874 3 0.795609 3 0 C 3 -0.795609 2.683901 -1.55874 2.12132 -2.12132 C 1.55874 -2.683901 0.795609 -3 0 -3 C -0.795609 -3 -1.55874 -2.683901 -2.12132 -2.12132 C -2.683901 -1.55874 -3 -0.795609 -3 0 C -3 0.795609 -2.683901 1.55874 -2.12132 2.12132 C -1.55874 2.683901 -0.795609 3 0 3 z" style="stroke:#e24a33"/></defs><g clip-path="url(#pf6a184e367)"><use style="fill:#e24a33;stroke:#e24a33" x="69.218" y="242.116" xlink:href="#m58ed458a1e"/><use style="fill:#e24a33;stroke:#e24a33" x="79.713" y="240.295" xlink:href="#m58ed458a1e"/><use style="fill:#e24a33;stroke:#e24a33" x="90.209" y="238.571" xlink:href="#m58ed458a1e"/><use style="fill:#e24a33;stroke:#e24a33" x="100.704" y="236.941" xlink:href="#m58ed458a1e"/><use style="fill:#e24a33;stroke:#e24a33" x="111.199" y="235.4" xlink:href="#m58ed458a1e"/><use style="fill:#e24a33;stroke:#e24a33" x="121.695" y="233.948" xlink:href="#m58ed458a1e"/><use style="fill:#e24a33;stroke:#e24a33" x="132.19" y="232.58" xlink:href="#m58ed458a1e"/><use style="fill:#e24a33;stroke:#e24a33" x="142.685" y="231.294" xlink:href="#m58ed458a1e"/><use style="fill:#e24a33;stroke:#e24a33" x="153.181" y="230.088" xlink:href="#m58ed458a1e"/><use style="fill:#e24a33;stroke:#e24a33" x="163.676" y="228.958" xlink:href="#m58ed458a1e"/><use style="fill:#e24a33;stroke:#e24a33" x="174.171" y="227.904" xlink:href="#m58ed458a1e"/><use style="fill:#e24a33;stroke:#e24a33" x="184.666" y="226.922" xlink:href="#m58ed458a1e"/><use style="fill:#e24a33;stroke:#e24a33" x="195.162" y="226.01" xlink:href="#m58ed458a1e"/><use style="fill:#e24a33;stroke:#e24a33" x="205.657" y="225.167" xlink:href="#m58ed458a1e"/><use style="fill:#e24a33;stroke:#e24a33" x="216.152" y="224.389" xlink:href="#m58ed458a1e"/><use style="fill:#e24a33;stroke:#e24a33" x="226.648" y="223.676" xlink:href="#m58ed458a1e"/><use style="fill:#e24a33;stroke:#e24a33" x="237.143" y="223.026" xlink:href="#m58ed458a1e"/><use style="fill:#e24a33;stroke:#e24a33" x="247.638" y="222.435" xlink:href="#m58ed458a1e"/><use style="fill:#e24a33;stroke:#e24a33" x="258.134" y="221.903" xlink:href="#m58ed458a1e"/><use style="fill:#e24a33;stroke:#e24a33" x="268.629" y="221.428" xlink:href="#m58ed458a1e"/><use style="fill:#e24a33;stroke:#e24a33" x="279.124" y="221.008" xlink:href="#m58ed458a1e"/><use style="fill:#e24a33;stroke:#e24a33" x="289.619" y="220.641" xlink:href="#m58ed458a1e"/><use style="fill:#e24a33;stroke:#e24a33" x="300.115" y="220.326" xlink:href="#m58ed458a1e"/><use style="fill:#e24a33;stroke:#e24a33" x="310.61" y="220.06" xlink:href="#m58ed458a1e"/><use style="fill:#e24a33;stroke:#e24a33" x="321.105" y="219.842" xlink:href="#m58ed458a1e"/><use style="fill:#e24a33;stroke:#e24a33" x="331.601" y="219.671" xlink:href="#m58ed458a1e"/><use style="fill:#e24a33;stroke:#e24a33" x="342.096" y="219.545" xlink:href="#m58ed458a1e"/><use style="fill:#e24a33;stroke:#e24a33" x="352.591" y="219.462" xlink:href="#m58ed458a1e"/><use style="fill:#e24a33;stroke:#e24a33" x="363.087" y="219.421" xlink:href="#m58ed458a1e"/><use style="fill:#e24a33;stroke:#e24a33" x="373.582" y="219.42" xlink:href="#m58ed458a1e"/></g></g><g id="line2d_28"><path d="M 69.218182 203.141995 L 79.71348 201.892042 L 90.208777 200.64215 L 100.704075 199.392373 L 111.199373 198.14286 L 121.694671 196.893826 L 132.189969 195.645538 L 142.685266 194.398299 L 153.180564 193.152433 L 163.675862 191.90828 L 174.17116 190.666183 L 184.666458 189.426487 L 195.161755 188.18953 L 205.657053 186.955642 L 216.152351 185.725145 L 226.647649 184.498345 L 237.142947 183.275535 L 247.638245 182.056993 L 258.133542 180.842981 L 268.62884 179.633748 L 279.124138 178.429523 L 289.619436 177.230522 L 300.114734 176.036947 L 310.610031 174.848982 L 321.105329 173.666798 L 331.600627 172.490553 L 342.095925 171.320391 L 352.591223 170.156441 L 363.08652 168.998823 L 373.581818 167.847643" clip-path="url(#pf6a184e367)" style="fill:none;stroke:#348abd;stroke-linecap:square;stroke-width:1.5"/><defs><path id="mdcd34bfd46" d="M -3 3 L 3 -3 M -3 -3 L 3 3" style="stroke:#348abd"/></defs><g clip-path="url(#pf6a184e367)"><use style="fill:#348abd;stroke:#348abd" x="69.218" y="203.142" xlink:href="#mdcd34bfd46"/><use style="fill:#348abd;stroke:#348abd" x="79.713" y="201.892" xlink:href="#mdcd34bfd46"/><use style="fill:#348abd;stroke:#348abd" x="90.209" y="200.642" xlink:href="#mdcd34bfd46"/><use style="fill:#348abd;stroke:#348abd" x="100.704" y="199.392" xlink:href="#mdcd34bfd46"/><use style="fill:#348abd;stroke:#348abd" x="111.199" y="198.143" xlink:href="#mdcd34bfd46"/><use style="fill:#348abd;stroke:#348abd" x="121.695" y="196.894" xlink:href="#mdcd34bfd46"/><use style="fill:#348abd;stroke:#348abd" x="132.19" y="195.646" xlink:href="#mdcd34bfd46"/><use style="fill:#348abd;stroke:#348abd" x="142.685" y="194.398" xlink:href="#mdcd34bfd46"/><use style="fill:#348abd;stroke:#348abd" x="153.181" y="193.152" xlink:href="#mdcd34bfd46"/><use style="fill:#348abd;stroke:#348abd" x="163.676" y="191.908" xlink:href="#mdcd34bfd46"/><use style="fill:#348abd;stroke:#348abd" x="174.171" y="190.666" xlink:href="#mdcd34bfd46"/><use style="fill:#348abd;stroke:#348abd" x="184.666" y="189.426" xlink:href="#mdcd34bfd46"/><use style="fill:#348abd;stroke:#348abd" x="195.162" y="188.19" xlink:href="#mdcd34bfd46"/><use style="fill:#348abd;stroke:#348abd" x="205.657" y="186.956" xlink:href="#mdcd34bfd46"/><use style="fill:#348abd;stroke:#348abd" x="216.152" y="185.725" xlink:href="#mdcd34bfd46"/><use style="fill:#348abd;stroke:#348abd" x="226.648" y="184.498" xlink:href="#mdcd34bfd46"/><use style="fill:#348abd;stroke:#348abd" x="237.143" y="183.276" xlink:href="#mdcd34bfd46"/><use style="fill:#348abd;stroke:#348abd" x="247.638" y="182.057" xlink:href="#mdcd34bfd46"/><use style="fill:#348abd;stroke:#348abd" x="258.134" y="180.843" xlink:href="#mdcd34bfd46"/><use style="fill:#348abd;stroke:#348abd" x="268.629" y="179.634" xlink:href="#mdcd34bfd46"/><use style="fill:#348abd;stroke:#348abd" x="279.124" y="178.43" xlink:href="#mdcd34bfd46"/><use style="fill:#348abd;stroke:#348abd" x="289.619" y="177.231" xlink:href="#mdcd34bfd46"/><use style="fill:#348abd;stroke:#348abd" x="300.115" y="176.037" xlink:href="#mdcd34bfd46"/><use style="fill:#348abd;stroke:#348abd" x="310.61" y="174.849" xlink:href="#mdcd34bfd46"/><use style="fill:#348abd;stroke:#348abd" x="321.105" y="173.667" xlink:href="#mdcd34bfd46"/><use style="fill:#348abd;stroke:#348abd" x="331.601" y="172.491" xlink:href="#mdcd34bfd46"/><use style="fill:#348abd;stroke:#348abd" x="342.096" y="171.32" xlink:href="#mdcd34bfd46"/><use style="fill:#348abd;stroke:#348abd" x="352.591" y="170.156" xlink:href="#mdcd34bfd46"/><use style="fill:#348abd;stroke:#348abd" x="363.087" y="168.999" xlink:href="#mdcd34bfd46"/><use style="fill:#348abd;stroke:#348abd" x="373.582" y="167.848" xlink:href="#mdcd34bfd46"/></g></g><g id="line2d_29"><path d="M 69.218182 215.447019 L 79.71348 214.903582 L 90.208777 214.381435 L 100.704075 213.88023 L 111.199373 213.399687 L 121.694671 212.939587 L 132.189969 212.499756 L 142.685266 212.080062 L 153.180564 211.680411 L 163.675862 211.300735 L 174.17116 210.940997 L 184.666458 210.601186 L 195.161755 210.281314 L 205.657053 209.981415 L 216.152351 209.701548 L 226.647649 209.441789 L 237.142947 209.202238 L 247.638245 208.983012 L 258.133542 208.784248 L 268.62884 208.606099 L 279.124138 208.448737 L 289.619436 208.312347 L 300.114734 208.19713 L 310.610031 208.103298 L 321.105329 208.031077 L 331.600627 207.980701 L 342.095925 207.952412 L 352.591223 207.94646 L 363.08652 207.963098 L 373.581818 208.002583" clip-path="url(#pf6a184e367)" style="fill:none;stroke:#348abd;stroke-linecap:square;stroke-width:1.5"/><defs><path id="m09b0c12731" d="M 0 3 C 0.795609 3 1.55874 2.683901 2.12132 2.12132 C 2.683901 1.55874 3 0.795609 3 0 C 3 -0.795609 2.683901 -1.55874 2.12132 -2.12132 C 1.55874 -2.683901 0.795609 -3 0 -3 C -0.795609 -3 -1.55874 -2.683901 -2.12132 -2.12132 C -2.683901 -1.55874 -3 -0.795609 -3 0 C -3 0.795609 -2.683901 1.55874 -2.12132 2.12132 C -1.55874 2.683901 -0.795609 3 0 3 z" style="stroke:#348abd"/></defs><g clip-path="url(#pf6a184e367)"><use style="fill:#348abd;stroke:#348abd" x="69.218" y="215.447" xlink:href="#m09b0c12731"/><use style="fill:#348abd;stroke:#348abd" x="79.713" y="214.904" xlink:href="#m09b0c12731"/><use style="fill:#348abd;stroke:#348abd" x="90.209" y="214.381" xlink:href="#m09b0c12731"/><use style="fill:#348abd;stroke:#348abd" x="100.704" y="213.88" xlink:href="#m09b0c12731"/><use style="fill:#348abd;stroke:#348abd" x="111.199" y="213.4" xlink:href="#m09b0c12731"/><use style="fill:#348abd;stroke:#348abd" x="121.695" y="212.94" xlink:href="#m09b0c12731"/><use style="fill:#348abd;stroke:#348abd" x="132.19" y="212.5" xlink:href="#m09b0c12731"/><use style="fill:#348abd;stroke:#348abd" x="142.685" y="212.08" xlink:href="#m09b0c12731"/><use style="fill:#348abd;stroke:#348abd" x="153.181" y="211.68" xlink:href="#m09b0c12731"/><use style="fill:#348abd;stroke:#348abd" x="163.676" y="211.301" xlink:href="#m09b0c12731"/><use style="fill:#348abd;stroke:#348abd" x="174.171" y="210.941" xlink:href="#m09b0c12731"/><use style="fill:#348abd;stroke:#348abd" x="184.666" y="210.601" xlink:href="#m09b0c12731"/><use style="fill:#348abd;stroke:#348abd" x="195.162" y="210.281" xlink:href="#m09b0c12731"/><use style="fill:#348abd;stroke:#348abd" x="205.657" y="209.981" xlink:href="#m09b0c12731"/><use style="fill:#348abd;stroke:#348abd" x="216.152" y="209.702" xlink:href="#m09b0c12731"/><use style="fill:#348abd;stroke:#348abd" x="226.648" y="209.442" xlink:href="#m09b0c12731"/><use style="fill:#348abd;stroke:#348abd" x="237.143" y="209.202" xlink:href="#m09b0c12731"/><use style="fill:#348abd;stroke:#348abd" x="247.638" y="208.983" xlink:href="#m09b0c12731"/><use style="fill:#348abd;stroke:#348abd" x="258.134" y="208.784" xlink:href="#m09b0c12731"/><use style="fill:#348abd;stroke:#348abd" x="268.629" y="208.606" xlink:href="#m09b0c12731"/><use style="fill:#348abd;stroke:#348abd" x="279.124" y="208.449" xlink:href="#m09b0c12731"/><use style="fill:#348abd;stroke:#348abd" x="289.619" y="208.312" xlink:href="#m09b0c12731"/><use style="fill:#348abd;stroke:#348abd" x="300.115" y="208.197" xlink:href="#m09b0c12731"/><use style="fill:#348abd;stroke:#348abd" x="310.61" y="208.103" xlink:href="#m09b0c12731"/><use style="fill:#348abd;stroke:#348abd" x="321.105" y="208.031" xlink:href="#m09b0c12731"/><use style="fill:#348abd;stroke:#348abd" x="331.601" y="207.981" xlink:href="#m09b0c12731"/><use style="fill:#348abd;stroke:#348abd" x="342.096" y="207.952" xlink:href="#m09b0c12731"/><use style="fill:#348abd;stroke:#348abd" x="352.591" y="207.946" xlink:href="#m09b0c12731"/><use style="fill:#348abd;stroke:#348abd" x="363.087" y="207.963" xlink:href="#m09b0c12731"/><use style="fill:#348abd;stroke:#348abd" x="373.582" y="208.003" xlink:href="#m09b0c12731"/></g></g><g id="patch_3"><path d="M 54 252 L 54 34.56" style="fill:none;stroke:#fff;stroke-linecap:square;stroke-linejoin:miter"/></g><g id="patch_4"><path d="M 388.8 252 L 388.8 34.56" style="fill:none;stroke:#fff;stroke-linecap:square;stroke-linejoin:miter"/></g><g id="patch_5"><path d="M 54 252 L 388.8 252" style="fill:none;stroke:#fff;stroke-linecap:square;stroke-linejoin:miter"/></g><g id="patch_6"><path d="M 54 34.56 L 388.8 34.56" style="fill:none;stroke:#fff;stroke-linecap:square;stroke-linejoin:miter"/></g><g id="text_15"><text style="font-family:DejaVu Sans;font-size:14.4px;font-style:normal;font-weight:400;text-anchor:middle" x="221.4" y="28.56" transform="rotate(-0, 221.4, 28.56)">New half-life (previously 7 days)</text></g><g id="legend_1"><g id="patch_7"><path d="M 61 101.5225 L 164.709375 101.5225 Q 166.709375 101.5225 166.709375 99.5225 L 166.709375 41.56 Q 166.709375 39.56 164.709375 39.56 L 61 39.56 Q 59 39.56 59 41.56 L 59 99.5225 Q 59 101.5225 61 101.5225 z" style="fill:#e5e5e5;opacity:.8;stroke:#ccc;stroke-linejoin:miter;stroke-width:.5"/></g><g id="line2d_30"><path d="M 63 47.720937 L 83 47.720937" style="fill:none;stroke:#e24a33;stroke-linecap:square;stroke-width:1.5"/></g><g id="line2d_31"><g><use style="fill:#e24a33;stroke:#e24a33" x="73" y="47.721" xlink:href="#m480beb7bbe"/></g></g><g id="text_16"><text style="font-family:DejaVu Sans;font-size:10px;font-style:normal;font-weight:400;text-anchor:start" x="91" y="51.221" transform="rotate(-0, 91, 51.220937)">α=β=3, pass</text></g><g id="line2d_32"><path d="M 63 62.461562 L 83 62.461562" style="fill:none;stroke:#e24a33;stroke-linecap:square;stroke-width:1.5"/></g><g id="line2d_33"><g><use style="fill:#e24a33;stroke:#e24a33" x="73" y="62.462" xlink:href="#m58ed458a1e"/></g></g><g id="text_17"><text style="font-family:DejaVu Sans;font-size:10px;font-style:normal;font-weight:400;text-anchor:start" x="91" y="65.962" transform="rotate(-0, 91, 65.961562)">α=β=3, fail</text></g><g id="line2d_34"><path d="M 63 77.202187 L 83 77.202187" style="fill:none;stroke:#348abd;stroke-linecap:square;stroke-width:1.5"/></g><g id="line2d_35"><g><use style="fill:#348abd;stroke:#348abd" x="73" y="77.202" xlink:href="#mdcd34bfd46"/></g></g><g id="text_18"><text style="font-family:DejaVu Sans;font-size:10px;font-style:normal;font-weight:400;text-anchor:start" x="91" y="80.702" transform="rotate(-0, 91, 80.702187)">α=β=12, pass</text></g><g id="line2d_36"><path d="M 63 91.942813 L 83 91.942813" style="fill:none;stroke:#348abd;stroke-linecap:square;stroke-width:1.5"/></g><g id="line2d_37"><g><use style="fill:#348abd;stroke:#348abd" x="73" y="91.943" xlink:href="#m09b0c12731"/></g></g><g id="text_19"><text style="font-family:DejaVu Sans;font-size:10px;font-style:normal;font-weight:400;text-anchor:start" x="91" y="95.443" transform="rotate(-0, 91, 95.442813)">α=β=12, fail</text></g></g></g></g><defs><clipPath id="pf6a184e367"><rect width="334.8" height="217.44" x="54" y="34.56"/></clipPath></defs></svg>